<?xml version="1.0" encoding="UTF-8" standalone="no"?>
<!-- Created with Inkscape (http://www.inkscape.org/) -->

<svg
   width="95.524994mm"
   height="35.60833mm"
   viewBox="0 0 95.524994 35.60833"
   version="1.1"
   id="svg1"
   inkscape:version="1.3.2 (091e20e, 2023-11-25, custom)"
   sodipodi:docname="mcex.svg"
   inkscape:export-filename="mcex.svg"
   inkscape:export-xdpi="96"
   inkscape:export-ydpi="96"
   xmlns:inkscape="http://www.inkscape.org/namespaces/inkscape"
   xmlns:sodipodi="http://sodipodi.sourceforge.net/DTD/sodipodi-0.dtd"
   xmlns="http://www.w3.org/2000/svg"
   xmlns:svg="http://www.w3.org/2000/svg">
  <sodipodi:namedview
     id="namedview1"
     pagecolor="#ffffff"
     bordercolor="#000000"
     borderopacity="0.25"
     inkscape:showpageshadow="2"
     inkscape:pageopacity="0.0"
     inkscape:pagecheckerboard="0"
     inkscape:deskcolor="#414141"
     inkscape:document-units="mm"
     showgrid="true"
     inkscape:zoom="8"
     inkscape:cx="70.1875"
     inkscape:cy="62.4375"
     inkscape:window-width="1920"
     inkscape:window-height="1017"
     inkscape:window-x="-8"
     inkscape:window-y="-8"
     inkscape:window-maximized="1"
     inkscape:current-layer="layer1" />
  <defs
     id="defs1">
    <rect
       x="376.25"
       y="389.29135"
       width="345.46982"
       height="323.35376"
       id="rect713" />
  </defs>
  <g
     inkscape:label="Capa 1"
     inkscape:groupmode="layer"
     id="layer1">
    <path
       id="path658"
       style="fill:#1c2224;stroke-width:0.264999"
       d="m 10.470656,16.143881 v -4 l 3.464101,2 v 4 z"
       sodipodi:nodetypes="ccccc" />
    <path
       id="path659"
       style="fill:#374548;fill-opacity:1;stroke-width:0.264999"
       d="m 27.791165,18.143881 v -4 l 3.4641,-2 v 4 z"
       sodipodi:nodetypes="ccccc" />
    <path
       id="path660"
       style="fill:#53676c;fill-opacity:1;stroke-width:0.264999"
       d="m 10.448048,12.143881 3.48671,-2 3.441492,2 -3.4641,2 z"
       sodipodi:nodetypes="ccccc" />
    <path
       id="path661"
       style="fill:#53676c;fill-opacity:1;stroke-width:0.264999"
       d="m 24.327065,12.143881 3.48671,-2 3.44149,2 -3.4641,2 z"
       sodipodi:nodetypes="ccccc" />
    <path
       id="path662"
       style="fill:#454b4f;fill-opacity:1;stroke-width:0.264999"
       d="m 13.934758,18.143881 v -4 l 3.4641,-2 v 4 z"
       sodipodi:nodetypes="ccccc" />
    <path
       id="path663"
       style="fill:#1c2224;stroke-width:0.264999"
       d="m 24.327065,16.143881 v -4 l 3.4641,2 v 4 l -2.35063,-1.35714 z"
       sodipodi:nodetypes="cccccc" />
    <path
       id="path664"
       style="fill:#53676c;fill-opacity:1;stroke-width:0.264999"
       d="m 17.398858,24.143881 3.464107,-2 3.4641,2 -3.4641,2 z"
       sodipodi:nodetypes="ccccc" />
    <path
       id="path665"
       style="fill:#1c2224;stroke-width:0.264999"
       d="m 10.470656,20.143881 v -4 l 3.464101,2 v 4 z"
       sodipodi:nodetypes="ccccc" />
    <path
       id="path666"
       style="fill:#1c2224;stroke-width:0.264999"
       d="m 10.470656,24.143881 v -4 l 3.464101,2 v 4 z"
       sodipodi:nodetypes="ccccc" />
    <path
       id="path667"
       style="fill:#1c2224;stroke-width:0.264999"
       d="m 13.934758,26.143881 v -4 l 3.4641,2 v 4 z"
       sodipodi:nodetypes="ccccc" />
    <path
       id="path668"
       style="fill:#374548;fill-opacity:1;stroke-width:0.264999"
       d="m 24.327065,28.143881 v -4 l 3.4641,-2 v 4 z"
       sodipodi:nodetypes="ccccc" />
    <path
       id="path669"
       style="fill:#374548;fill-opacity:1;stroke-width:0.264999"
       d="m 27.791165,26.143881 v -4 l 3.4641,-2 v 4 z"
       sodipodi:nodetypes="ccccc" />
    <path
       id="path670"
       style="fill:#454b4f;fill-opacity:1;stroke-width:0.264999"
       d="m 13.934758,22.143881 v -4 l 3.4641,-2 v 4 z"
       sodipodi:nodetypes="ccccc" />
    <path
       id="path671"
       style="fill:#1c2224;stroke-width:0.264999"
       d="m 24.327065,20.143881 v -4 l 3.4641,2 v 4 l -2.35063,-1.35714 z"
       sodipodi:nodetypes="cccccc" />
    <path
       id="path672"
       style="fill:#374548;fill-opacity:1;stroke-width:0.264999"
       d="m 27.791165,22.143881 v -4 l 3.4641,-2 v 4 z"
       sodipodi:nodetypes="ccccc" />
    <path
       id="path673"
       style="fill:#53676c;fill-opacity:1;stroke-width:0.264999"
       d="m 13.934757,22.143881 3.464101,-2 3.464107,2 -3.464107,2 z"
       sodipodi:nodetypes="ccccc" />
    <path
       id="path674"
       style="fill:#cccccc;stroke-width:0.264999"
       d="m 17.398859,20.143881 3.486706,-2 3.4415,2 -3.4641,2 z"
       sodipodi:nodetypes="ccccc" />
    <path
       id="path675"
       style="fill:#454b4f;fill-opacity:1;stroke-width:0.264999"
       d="m 17.398859,16.143881 v -4 l 3.464106,-2 v 4 z"
       sodipodi:nodetypes="ccccc" />
    <path
       id="path676"
       style="fill:#53676c;fill-opacity:1;stroke-width:0.264999"
       d="m 13.923453,10.143881 3.48671,-2.0000001 3.441492,2.0000001 -3.4641,2 z"
       sodipodi:nodetypes="ccccc" />
    <path
       id="path677"
       style="fill:#53676c;fill-opacity:1;stroke-width:0.264999"
       d="m 17.410163,8.143881 3.464102,-2.0000001 3.47541,2.0000001 -3.49802,2 z"
       sodipodi:nodetypes="ccccc" />
    <path
       id="path678"
       style="fill:#53676c;fill-opacity:1;stroke-width:0.264999"
       d="m 20.862955,10.143881 3.48672,-2.0000001 3.4641,2.0000001 -3.48671,2 z"
       sodipodi:nodetypes="ccccc" />
    <path
       id="path679"
       style="fill:#1c2224;stroke-width:0.264999"
       d="m 20.862965,14.143881 v -4 l 3.4641,2 v 4 l -2.35064,-1.35714 z"
       sodipodi:nodetypes="cccccc" />
    <path
       id="path680"
       style="fill:#6f8a91;stroke-width:0.264999"
       d="m 17.398858,20.143881 v -4 l 3.464107,2 v 4 z"
       sodipodi:nodetypes="ccccc" />
    <path
       id="path681"
       style="fill:#93a7ac;fill-opacity:1;stroke-width:0.264999"
       d="m 20.862965,22.143881 v -4 l 3.4641,-2 v 4 z"
       sodipodi:nodetypes="ccccc" />
    <path
       id="path682"
       style="fill:#b7c4c8;fill-opacity:1;stroke-width:0.264999"
       d="m 17.398857,16.143881 3.486708,-2 3.4415,2 -3.4641,2 z"
       sodipodi:nodetypes="ccccc" />
    <path
       id="path683"
       style="fill:#53676c;fill-opacity:1;stroke-width:0.264999"
       d="m 20.862965,22.143881 3.4641,-2 3.4641,2 -3.4641,2 z"
       sodipodi:nodetypes="ccccc" />
    <path
       id="path684"
       style="fill:#1c2224;stroke-width:0.264999"
       d="m 17.398858,28.143881 v -4 l 3.464097,2 v 4 z"
       sodipodi:nodetypes="ccccc" />
    <path
       id="path685"
       style="fill:#374548;fill-opacity:1;stroke-width:0.264999"
       d="m 20.862955,30.143881 v -4 l 3.4641,-2 v 4 z"
       sodipodi:nodetypes="ccccc" />
    <text
       xml:space="preserve"
       transform="matrix(0.26458333,0,0,0.26458333,-61.891284,-88.135569)"
       id="text713"
       style="font-style:normal;font-variant:normal;font-weight:normal;font-stretch:normal;font-size:26.6667px;line-height:1.5;font-family:'M42_FLIGHT 721';-inkscape-font-specification:'M42_FLIGHT 721, ';white-space:pre;shape-inside:url(#rect713);display:inline;fill:#000000;fill-opacity:1;stroke:#1c1f24;stroke-width:1.00157;stroke-dasharray:none"><tspan
         x="376.25"
         y="413.73549"
         id="tspan2">MCEX</tspan></text>
  </g>
</svg>
